<?xml version="1.0" standalone="no"?>
<!DOCTYPE svg PUBLIC "-//W3C//DTD SVG 20010904//EN"
 "http://www.w3.org/TR/2001/REC-SVG-20010904/DTD/svg10.dtd">
<svg version="1.0" xmlns="http://www.w3.org/2000/svg"
 width="1024.000000pt" height="1024.000000pt" viewBox="0 0 1024.000000 1024.000000"
 preserveAspectRatio="xMidYMid meet">
<metadata>
Created by potrace 1.11, written by Peter Selinger 2001-2013
</metadata>
<g transform="translate(0.000000,1024.000000) scale(0.100000,-0.100000)"
fill="#000000" stroke="none">
<path d="M2489 10228 c-1 -7 -3 -92 -3 -188 l-1 -175 -75 1 c-42 0 -78 -4 -82
-10 -5 -7 -8 -7 -8 -1 0 8 -138 13 -195 6 -7 -1 -11 -61 -10 -177 0 -109 -3
-178 -9 -182 -6 -3 -85 -6 -176 -7 l-165 0 0 -37 c1 -21 -3 -38 -8 -38 -5 0
-5 -6 1 -13 7 -8 7 -18 2 -27 -5 -8 -5 -21 1 -32 7 -13 6 -18 -2 -18 -9 0 -9
-3 0 -14 8 -9 8 -16 2 -20 -7 -5 -7 -15 -1 -31 6 -17 6 -25 -1 -25 -6 0 -7 -6
-3 -12 12 -19 12 -48 1 -48 -5 0 -5 -5 1 -13 7 -8 7 -18 2 -27 -5 -8 -5 -21 0
-30 6 -11 5 -21 -2 -28 -8 -8 -8 -12 -2 -12 12 0 12 -29 0 -48 -4 -6 -4 -12 1
-12 4 0 8 -20 8 -45 0 -25 -4 -45 -8 -45 -5 0 -5 -6 -1 -12 12 -19 12 -48 1
-48 -5 0 -5 -5 1 -13 7 -8 7 -18 2 -27 -5 -8 -5 -21 0 -30 6 -11 5 -21 -2 -28
-8 -8 -8 -12 -2 -12 12 0 12 -29 0 -48 -4 -6 -3 -12 1 -12 10 0 10 -61 -1 -78
-4 -7 -2 -12 4 -12 7 0 8 -6 1 -18 -6 -11 -6 -24 0 -35 7 -12 6 -17 -2 -17 -8
0 -9 -3 0 -13 6 -8 8 -17 4 -21 -9 -8 -12 -46 -3 -46 3 0 6 -9 6 -20 0 -11 -4
-20 -9 -20 -5 0 -5 -6 1 -13 7 -8 7 -18 2 -27 -5 -8 -5 -21 1 -32 7 -13 6 -18
-2 -18 -8 0 -8 -4 -1 -13 7 -8 7 -18 2 -27 -5 -8 -5 -21 0 -30 6 -11 5 -21 -2
-28 -7 -7 -8 -12 -2 -12 11 0 12 -60 0 -78 -4 -7 -2 -12 4 -12 7 0 8 -6 1 -18
-6 -11 -6 -24 0 -35 7 -12 6 -17 -2 -17 -9 0 -9 -3 0 -14 8 -9 8 -16 2 -20 -7
-5 -7 -15 -1 -31 6 -17 6 -25 -1 -25 -6 0 -7 -6 -3 -12 12 -19 12 -48 1 -48
-5 0 -5 -5 1 -13 7 -8 7 -18 2 -27 -5 -8 -5 -21 0 -30 6 -11 5 -21 -2 -28 -8
-8 -8 -12 -2 -12 12 0 12 -29 0 -48 -4 -6 -3 -12 1 -12 10 0 10 -61 -1 -78 -4
-7 -2 -12 4 -12 7 0 8 -6 1 -18 -6 -11 -6 -24 0 -35 7 -12 6 -17 -2 -17 -8 0
-9 -3 0 -13 6 -8 8 -17 4 -21 -9 -8 -12 -46 -3 -46 3 0 6 -9 6 -20 0 -11 -4
-20 -9 -20 -5 0 -5 -6 1 -13 7 -8 7 -18 2 -27 -5 -8 -5 -21 1 -32 7 -13 6 -18
-2 -18 -8 0 -8 -4 -1 -13 7 -8 7 -18 2 -27 -5 -8 -5 -21 0 -30 6 -11 5 -21 -2
-28 -7 -7 -8 -12 -2 -12 11 0 12 -60 0 -78 -4 -7 -2 -12 4 -12 7 0 8 -6 1 -18
-6 -11 -6 -24 0 -35 7 -12 6 -17 -2 -17 -8 0 -9 -4 0 -13 8 -10 7 -17 -1 -25
-9 -9 -9 -12 0 -12 9 0 10 -5 3 -18 -6 -11 -6 -24 0 -35 7 -12 6 -17 -2 -17
-8 0 -9 -4 0 -13 8 -10 7 -17 -1 -25 -9 -9 -9 -12 0 -12 6 0 9 -6 6 -14 -4
-10 -37 -14 -152 -14 -81 0 -163 -1 -183 -1 l-36 -1 1 -372 1 -373 178 -1
c122 0 181 -4 189 -12 9 -9 9 -12 0 -12 -9 0 -10 -5 -3 -18 6 -11 6 -24 0 -35
-6 -9 -6 -17 -2 -17 5 0 9 -9 9 -20 0 -11 -4 -20 -8 -20 -5 0 -4 -8 1 -18 7
-13 6 -23 -1 -30 -9 -9 -9 -12 0 -12 9 0 10 -5 3 -18 -6 -11 -6 -24 -1 -32 5
-9 5 -19 -2 -27 -6 -7 -6 -13 -1 -13 5 0 9 -9 9 -20 0 -11 -4 -20 -8 -20 -5 0
-4 -9 2 -20 6 -11 8 -25 5 -30 -3 -5 20 -9 57 -10 35 0 72 0 83 0 11 0 49 0
85 0 131 -1 125 2 125 -57 0 -28 3 -55 7 -59 4 -4 2 -14 -5 -22 -14 -18 -13
-22 5 -33 7 -5 8 -9 3 -9 -7 0 -10 -92 -10 -270 0 -234 -2 -270 -15 -271 -8 0
-25 -2 -37 -3 -13 -2 -23 2 -23 8 0 8 -3 8 -8 1 -9 -14 -55 -13 -64 0 -5 7 -8
7 -8 0 0 -11 -80 -13 -96 -2 -6 3 -16 2 -24 -3 -8 -5 -21 -5 -31 1 -12 6 -20
5 -24 -1 -4 -6 -10 -8 -15 -5 -4 3 -10 -2 -14 -10 -3 -8 -2 -15 2 -15 10 0 8
-62 -2 -78 -4 -7 -2 -12 4 -12 7 0 8 -6 1 -18 -6 -11 -6 -24 0 -35 7 -12 6
-17 -2 -17 -9 0 -9 -3 0 -14 8 -9 8 -16 2 -20 -7 -5 -7 -15 -1 -31 7 -17 6
-25 -1 -25 -8 0 -8 -4 0 -13 8 -10 7 -17 -1 -25 -7 -7 -8 -12 -2 -12 5 0 10
-9 10 -20 0 -19 -7 -20 -177 -20 -129 0 -179 -3 -187 -13 -5 -7 -9 -84 -8
-189 l1 -178 -75 0 c-41 0 -124 -2 -185 -3 l-110 -2 0 -280 0 -280 -103 0
c-56 1 -102 -3 -102 -8 0 -4 -5 -5 -12 -1 -6 4 -37 8 -68 8 l-57 1 2 -93 c0
-51 -3 -96 -7 -98 -5 -3 -5 -11 -1 -17 11 -17 12 -67 1 -67 -5 0 -6 -6 -2 -12
12 -19 11 -138 -1 -138 -7 0 -7 -3 0 -8 13 -9 15 -82 3 -82 -5 0 -6 -6 -2 -12
11 -18 12 -148 1 -148 -4 0 -5 -6 -1 -12 12 -19 11 -138 -1 -138 -7 0 -7 -3 0
-8 13 -9 15 -82 3 -82 -5 0 -6 -6 -2 -12 12 -19 11 -138 -1 -138 -7 0 -7 -3 0
-8 14 -9 14 -75 1 -84 -8 -6 -8 -10 -1 -15 14 -10 14 -66 0 -75 -7 -5 -7 -8 0
-8 6 0 11 -16 11 -35 0 -19 -5 -35 -11 -35 -7 0 -7 -3 0 -8 6 -4 11 -20 11
-37 0 -16 -5 -33 -11 -37 -7 -5 -7 -8 0 -8 6 0 11 -16 11 -35 0 -19 -5 -35
-11 -35 -7 0 -7 -3 0 -8 6 -4 11 -20 11 -37 0 -16 -5 -33 -11 -37 -7 -5 -7 -8
0 -8 6 0 11 -16 11 -35 0 -19 -5 -35 -11 -35 -7 0 -7 -3 0 -8 14 -9 14 -65 0
-74 -7 -5 -7 -8 1 -8 6 0 10 -25 9 -68 l-2 -67 171 0 171 0 0 -170 c-1 -93 1
-177 3 -185 3 -13 71 -15 550 -13 607 1 571 0 557 11 -6 4 -10 55 -10 117 0
62 4 113 10 117 7 5 7 8 0 8 -6 0 -10 71 -10 192 0 117 4 196 10 200 7 5 7 8
0 8 -11 0 -13 69 -3 85 4 6 46 10 97 10 54 0 91 4 91 10 0 7 3 6 8 0 8 -11
141 -14 157 -3 7 4 11 186 10 552 l0 546 63 0 c80 1 224 1 259 0 14 0 24 -3
21 -6 -4 -3 -2 -19 2 -35 5 -16 6 -29 2 -29 -4 0 -7 -20 -7 -45 0 -25 3 -45 7
-45 4 0 3 -11 -2 -24 -6 -17 -5 -26 3 -30 8 -3 8 -5 1 -5 -11 -1 -10 -49 0
-78 3 -6 2 -14 -2 -17 -9 -9 -9 -76 0 -76 4 0 5 -7 2 -15 -9 -23 -10 -116 -2
-121 5 -3 6 -10 2 -15 -10 -17 -12 -59 -2 -65 4 -3 5 -10 1 -17 -9 -16 -10
-58 -1 -63 5 -3 5 -13 0 -22 -9 -21 -9 -43 1 -59 5 -7 4 -13 -1 -13 -9 0 -7
-51 3 -77 2 -7 1 -14 -3 -17 -9 -5 -8 -78 1 -93 4 -7 3 -15 -3 -18 -8 -5 -7
-11 1 -21 6 -8 7 -14 3 -14 -8 0 -10 -122 -4 -155 1 -5 1 -12 0 -15 -6 -14 -4
-90 2 -90 4 0 3 -11 -2 -24 -6 -17 -5 -26 3 -30 7 -2 7 -5 2 -5 -10 -1 -12
-129 -2 -156 4 -8 3 -17 -2 -19 -6 -4 -7 -71 -1 -101 1 -5 1 -12 0 -15 -6 -15
-4 -92 2 -96 4 -3 5 -11 2 -19 -8 -19 -11 -105 -4 -106 3 0 84 -2 180 -4 96
-1 178 -3 181 -4 3 0 5 -80 5 -177 -1 -107 3 -178 9 -182 17 -11 55 -9 55 2 0
7 3 8 8 1 4 -6 16 -11 27 -11 11 0 23 5 27 11 5 7 8 7 8 0 0 -12 40 -13 58 -1
7 4 12 3 12 -2 0 -10 30 -9 48 2 6 4 12 3 12 -2 0 -10 36 -9 46 1 4 3 15 2 25
-4 11 -5 19 -6 19 -2 0 4 4 3 8 -4 4 -6 7 -176 6 -377 l-1 -366 156 -1 c86 -1
166 0 179 1 l22 1 0 -185 0 -185 728 0 729 0 0 167 c1 92 2 175 2 185 1 16 34
17 544 17 l544 0 -1 190 -1 190 120 1 c66 0 146 1 178 2 32 1 57 -2 58 -8 0
-5 4 -1 8 10 4 11 7 179 7 373 -1 227 3 353 9 354 6 0 330 2 720 2 l710 2 2
34 c2 19 4 103 5 185 l3 150 83 0 c73 0 83 2 89 20 4 11 7 97 7 190 l1 170
170 0 c101 0 173 3 177 9 4 6 7 154 7 331 0 176 0 338 0 360 l1 40 167 -2 c92
-1 175 3 183 7 11 6 16 21 15 44 -1 21 3 36 9 36 7 0 7 3 1 8 -14 10 -16 84
-2 75 6 -4 7 -1 1 8 -12 20 -12 169 1 169 7 0 7 3 0 8 -15 11 -19 46 -4 36 8
-5 9 -3 3 7 -12 20 -12 99 0 99 8 0 7 3 0 8 -12 8 -13 61 -1 80 5 6 4 12 -1
12 -10 0 -9 130 1 148 5 6 4 12 -1 12 -10 0 -9 130 1 148 5 6 4 12 -1 12 -10
0 -9 130 1 148 5 6 4 12 0 12 -5 0 -9 53 -8 118 l0 117 -160 2 c-88 1 -171 2
-185 2 l-25 1 2 190 3 190 -178 0 -178 0 0 361 1 362 176 0 177 0 0 748 0 749
-31 1 c-18 0 -97 1 -177 2 l-145 2 -2 1290 c0 710 -2 1295 -2 1301 -1 7 -32
10 -88 10 l-88 -1 -5 173 c-3 105 -1 172 5 172 5 0 4 5 -3 12 -15 15 -202 19
-202 4 0 -7 -3 -8 -8 -1 -4 6 -38 10 -77 10 l-70 1 -1 169 c-1 94 -2 178 -3
188 -1 16 -138 17 -2721 17 -2169 0 -2720 -3 -2721 -12z"/>
</g>
</svg>
